<svg viewBox="0 0 100 100" xmlns="http://www.w3.org/2000/svg">
  <path fill="#000"  
     d="M 45.2368602791856 2.75
        Q 50 0 54.7631397208144 2.75
        L 60.1851747685315 5.88041339435507
        L 60.1851747685315 28.7199133943551
        L 52.5873851277436 24.3333275
        Q 50 22.8395 47.4126148722564 24.3333275
        L 29.0657021482564 34.9259225
        Q 26.4783170205128 36.41975 26.4783170205128 39.407405
        L 26.4783170205128 60.592595
        Q 26.4783170205128 63.58025 29.0657021482564 65.0740775
        L 47.4126148722564 75.6666725
        Q 50 77.1605 52.5873851277436 75.6666725
        L 70.9342978517437 65.0740775
        Q 73.5216829794873 63.58025 73.5216829794873 60.592595
        L 73.5216829794873 13.58025
        L 88.5381304684075 22.25
        Q 93.3012701892219 25 93.3012701892219 30.5
        L 93.3012701892219 69.5
        Q 93.3012701892219 75 88.5381304684075 77.75
        L 54.7631397208144 97.25
        Q 50 100 45.2368602791856 97.25
        L 11.4618695315925 77.75
        Q 6.69872981077806 75 6.69872981077806 69.5
        L 6.69872981077806 30.5
        Q 6.69872981077806 25 11.4618695315925 22.25
        Z"/>
        
    <circle cx="50" cy="50" r="10.1851747685315" fill="#000"/>
</svg>
