<svg viewBox="0 0 100 100" xmlns="http://www.w3.org/2000/svg">
  <path fill="#000"  
     d="M 46.5358983848622 2
    Q 50 0 53.4641016151378 2
        L 59.3749882812646 4.68749414063232
        L 59.3749882812646 29.6874941406323
        L 51.7320508075689 26
    Q 50 25 48.2679491924311 26
        L 30.0814157129579 36.5
    Q 28.349364905389 37.5 28.349364905389 39.5
        L 28.349364905389 60.5
    Q 28.349364905389 62.5 30.0814157129579 63.5
        L 48.2679491924311 74
    Q 50 75 51.7320508075689 74
        L 69.9185842870421 63.5
    Q 71.650635094611 62.5 71.650635094611 60.5
        L 71.650635094611 12.5
        L 89.8371685740842 23
    Q 93.3012701892219 25 93.3012701892219 29
        L 93.3012701892219 71
    Q 93.3012701892219 75 89.8371685740842 77
        L 53.4641016151378 98
    Q 50 100 46.5358983848622 98
        L 10.1628314259158 77
    Q 6.69872981077806 75 6.69872981077806 71
        L 6.69872981077806 29
    Q 6.69872981077806 25 10.1628314259158 23
        Z"/>
        
    <circle cx="50" cy="50" r="9.37498828126465" fill="#000"/>
</svg>
