<svg viewBox="0 0 100 100" xmlns="http://www.w3.org/2000/svg">
  <path fill="#000"  
     d="M 43.0717967697245 4
        Q 50 0 56.9282032302755 4
        L 59.8437376953279 5.68328460822962
        L 59.8437376953279 29.4332846082296
        L 53.6373066958946 25.85
        Q 50 23.75 46.3626933041054 25.85
        L 30.9041398465531 34.775
        Q 27.2668331506585 36.875 27.2668331506585 41.075
        L 27.2668331506585 58.925
        Q 27.2668331506585 63.125 30.9041398465531 65.225
        L 46.3626933041054 74.15
        Q 50 76.25 53.6373066958946 74.15
        L 69.0958601534469 65.225
        Q 72.7331668493415 63.125 72.7331668493415 58.925
        L 72.7331668493415 13.125
        L 86.3730669589464 21
        Q 93.3012701892219 25 93.3012701892219 33
        L 93.3012701892219 67
        Q 93.3012701892219 75 86.3730669589464 79
        L 56.9282032302755 96
        Q 50 100 43.0717967697245 96
        L 13.6269330410536 79
        Q 6.69872981077806 75 6.69872981077806 67
        L 6.69872981077806 33
        Q 6.69872981077806 25 13.6269330410536 21
        Z"/>
        
    <circle cx="50" cy="50" r="9.84373769532788" fill="#000"/>
</svg>
